<?xml version="1.0" encoding="utf-8" standalone="no"?>
<!DOCTYPE svg PUBLIC "-//W3C//DTD SVG 1.1//EN"
  "http://www.w3.org/Graphics/SVG/1.1/DTD/svg11.dtd">
<svg xmlns:xlink="http://www.w3.org/1999/xlink" width="460.8pt" height="345.6pt" viewBox="0 0 460.8 345.6" xmlns="http://www.w3.org/2000/svg" version="1.1">
 <metadata>
  <rdf:RDF xmlns:dc="http://purl.org/dc/elements/1.1/" xmlns:cc="http://creativecommons.org/ns#" xmlns:rdf="http://www.w3.org/1999/02/22-rdf-syntax-ns#">
   <cc:Work>
    <dc:type rdf:resource="http://purl.org/dc/dcmitype/StillImage"/>
    <dc:date>2023-09-23T23:26:34.538666</dc:date>
    <dc:format>image/svg+xml</dc:format>
    <dc:creator>
     <cc:Agent>
      <dc:title>Matplotlib v3.5.2, https://matplotlib.org/</dc:title>
     </cc:Agent>
    </dc:creator>
   </cc:Work>
  </rdf:RDF>
 </metadata>
 <defs>
  <style type="text/css">*{stroke-linejoin: round; stroke-linecap: butt}</style>
 </defs>
 <g id="figure_1">
  <g id="patch_1">
   <path d="M 0 345.6 
L 460.8 345.6 
L 460.8 0 
L 0 0 
z
" style="fill: #ffffff"/>
  </g>
  <g id="axes_1">
   <g id="patch_2">
    <path d="M 57.6 307.584 
L 414.72 307.584 
L 414.72 41.472 
L 57.6 41.472 
z
" style="fill: #eaeaf2"/>
   </g>
   <g id="matplotlib.axis_1">
    <g id="xtick_1">
     <g id="line2d_1">
      <path d="M 73.702813 307.584 
L 73.702813 41.472 
" clip-path="url(#p08efe9f688)" style="fill: none; stroke: #ffffff; stroke-linecap: round"/>
     </g>
     <g id="text_1">
      <!-- 0.0 -->
      <g style="fill: #262626" transform="translate(66.057813 324.957594)scale(0.11 -0.11)">
       <defs>
        <path id="ArialMT-30" d="M 266 2259 
Q 266 3072 433 3567 
Q 600 4063 929 4331 
Q 1259 4600 1759 4600 
Q 2128 4600 2406 4451 
Q 2684 4303 2865 4023 
Q 3047 3744 3150 3342 
Q 3253 2941 3253 2259 
Q 3253 1453 3087 958 
Q 2922 463 2592 192 
Q 2263 -78 1759 -78 
Q 1097 -78 719 397 
Q 266 969 266 2259 
z
M 844 2259 
Q 844 1131 1108 757 
Q 1372 384 1759 384 
Q 2147 384 2411 759 
Q 2675 1134 2675 2259 
Q 2675 3391 2411 3762 
Q 2147 4134 1753 4134 
Q 1366 4134 1134 3806 
Q 844 3388 844 2259 
z
" transform="scale(0.015625)"/>
        <path id="ArialMT-2e" d="M 581 0 
L 581 641 
L 1222 641 
L 1222 0 
L 581 0 
z
" transform="scale(0.015625)"/>
       </defs>
       <use xlink:href="#ArialMT-30"/>
       <use xlink:href="#ArialMT-2e" x="55.615234"/>
       <use xlink:href="#ArialMT-30" x="83.398438"/>
      </g>
     </g>
    </g>
    <g id="xtick_2">
     <g id="line2d_2">
      <path d="M 138.659705 307.584 
L 138.659705 41.472 
" clip-path="url(#p08efe9f688)" style="fill: none; stroke: #ffffff; stroke-linecap: round"/>
     </g>
     <g id="text_2">
      <!-- 0.2 -->
      <g style="fill: #262626" transform="translate(131.014705 324.957594)scale(0.11 -0.11)">
       <defs>
        <path id="ArialMT-32" d="M 3222 541 
L 3222 0 
L 194 0 
Q 188 203 259 391 
Q 375 700 629 1000 
Q 884 1300 1366 1694 
Q 2113 2306 2375 2664 
Q 2638 3022 2638 3341 
Q 2638 3675 2398 3904 
Q 2159 4134 1775 4134 
Q 1369 4134 1125 3890 
Q 881 3647 878 3216 
L 300 3275 
Q 359 3922 746 4261 
Q 1134 4600 1788 4600 
Q 2447 4600 2831 4234 
Q 3216 3869 3216 3328 
Q 3216 3053 3103 2787 
Q 2991 2522 2730 2228 
Q 2469 1934 1863 1422 
Q 1356 997 1212 845 
Q 1069 694 975 541 
L 3222 541 
z
" transform="scale(0.015625)"/>
       </defs>
       <use xlink:href="#ArialMT-30"/>
       <use xlink:href="#ArialMT-2e" x="55.615234"/>
       <use xlink:href="#ArialMT-32" x="83.398438"/>
      </g>
     </g>
    </g>
    <g id="xtick_3">
     <g id="line2d_3">
      <path d="M 203.616597 307.584 
L 203.616597 41.472 
" clip-path="url(#p08efe9f688)" style="fill: none; stroke: #ffffff; stroke-linecap: round"/>
     </g>
     <g id="text_3">
      <!-- 0.4 -->
      <g style="fill: #262626" transform="translate(195.971597 324.957594)scale(0.11 -0.11)">
       <defs>
        <path id="ArialMT-34" d="M 2069 0 
L 2069 1097 
L 81 1097 
L 81 1613 
L 2172 4581 
L 2631 4581 
L 2631 1613 
L 3250 1613 
L 3250 1097 
L 2631 1097 
L 2631 0 
L 2069 0 
z
M 2069 1613 
L 2069 3678 
L 634 1613 
L 2069 1613 
z
" transform="scale(0.015625)"/>
       </defs>
       <use xlink:href="#ArialMT-30"/>
       <use xlink:href="#ArialMT-2e" x="55.615234"/>
       <use xlink:href="#ArialMT-34" x="83.398438"/>
      </g>
     </g>
    </g>
    <g id="xtick_4">
     <g id="line2d_4">
      <path d="M 268.573489 307.584 
L 268.573489 41.472 
" clip-path="url(#p08efe9f688)" style="fill: none; stroke: #ffffff; stroke-linecap: round"/>
     </g>
     <g id="text_4">
      <!-- 0.6 -->
      <g style="fill: #262626" transform="translate(260.928489 324.957594)scale(0.11 -0.11)">
       <defs>
        <path id="ArialMT-36" d="M 3184 3459 
L 2625 3416 
Q 2550 3747 2413 3897 
Q 2184 4138 1850 4138 
Q 1581 4138 1378 3988 
Q 1113 3794 959 3422 
Q 806 3050 800 2363 
Q 1003 2672 1297 2822 
Q 1591 2972 1913 2972 
Q 2475 2972 2870 2558 
Q 3266 2144 3266 1488 
Q 3266 1056 3080 686 
Q 2894 316 2569 119 
Q 2244 -78 1831 -78 
Q 1128 -78 684 439 
Q 241 956 241 2144 
Q 241 3472 731 4075 
Q 1159 4600 1884 4600 
Q 2425 4600 2770 4297 
Q 3116 3994 3184 3459 
z
M 888 1484 
Q 888 1194 1011 928 
Q 1134 663 1356 523 
Q 1578 384 1822 384 
Q 2178 384 2434 671 
Q 2691 959 2691 1453 
Q 2691 1928 2437 2201 
Q 2184 2475 1800 2475 
Q 1419 2475 1153 2201 
Q 888 1928 888 1484 
z
" transform="scale(0.015625)"/>
       </defs>
       <use xlink:href="#ArialMT-30"/>
       <use xlink:href="#ArialMT-2e" x="55.615234"/>
       <use xlink:href="#ArialMT-36" x="83.398438"/>
      </g>
     </g>
    </g>
    <g id="xtick_5">
     <g id="line2d_5">
      <path d="M 333.530381 307.584 
L 333.530381 41.472 
" clip-path="url(#p08efe9f688)" style="fill: none; stroke: #ffffff; stroke-linecap: round"/>
     </g>
     <g id="text_5">
      <!-- 0.8 -->
      <g style="fill: #262626" transform="translate(325.885381 324.957594)scale(0.11 -0.11)">
       <defs>
        <path id="ArialMT-38" d="M 1131 2484 
Q 781 2613 612 2850 
Q 444 3088 444 3419 
Q 444 3919 803 4259 
Q 1163 4600 1759 4600 
Q 2359 4600 2725 4251 
Q 3091 3903 3091 3403 
Q 3091 3084 2923 2848 
Q 2756 2613 2416 2484 
Q 2838 2347 3058 2040 
Q 3278 1734 3278 1309 
Q 3278 722 2862 322 
Q 2447 -78 1769 -78 
Q 1091 -78 675 323 
Q 259 725 259 1325 
Q 259 1772 486 2073 
Q 713 2375 1131 2484 
z
M 1019 3438 
Q 1019 3113 1228 2906 
Q 1438 2700 1772 2700 
Q 2097 2700 2305 2904 
Q 2513 3109 2513 3406 
Q 2513 3716 2298 3927 
Q 2084 4138 1766 4138 
Q 1444 4138 1231 3931 
Q 1019 3725 1019 3438 
z
M 838 1322 
Q 838 1081 952 856 
Q 1066 631 1291 507 
Q 1516 384 1775 384 
Q 2178 384 2440 643 
Q 2703 903 2703 1303 
Q 2703 1709 2433 1975 
Q 2163 2241 1756 2241 
Q 1359 2241 1098 1978 
Q 838 1716 838 1322 
z
" transform="scale(0.015625)"/>
       </defs>
       <use xlink:href="#ArialMT-30"/>
       <use xlink:href="#ArialMT-2e" x="55.615234"/>
       <use xlink:href="#ArialMT-38" x="83.398438"/>
      </g>
     </g>
    </g>
    <g id="xtick_6">
     <g id="line2d_6">
      <path d="M 398.487273 307.584 
L 398.487273 41.472 
" clip-path="url(#p08efe9f688)" style="fill: none; stroke: #ffffff; stroke-linecap: round"/>
     </g>
     <g id="text_6">
      <!-- 1.0 -->
      <g style="fill: #262626" transform="translate(390.842273 324.957594)scale(0.11 -0.11)">
       <defs>
        <path id="ArialMT-31" d="M 2384 0 
L 1822 0 
L 1822 3584 
Q 1619 3391 1289 3197 
Q 959 3003 697 2906 
L 697 3450 
Q 1169 3672 1522 3987 
Q 1875 4303 2022 4600 
L 2384 4600 
L 2384 0 
z
" transform="scale(0.015625)"/>
       </defs>
       <use xlink:href="#ArialMT-31"/>
       <use xlink:href="#ArialMT-2e" x="55.615234"/>
       <use xlink:href="#ArialMT-30" x="83.398438"/>
      </g>
     </g>
    </g>
    <g id="text_7">
     <!-- Environment Steps -->
     <g style="fill: #262626" transform="translate(185.470313 339.879469)scale(0.12 -0.12)">
      <defs>
       <path id="ArialMT-45" d="M 506 0 
L 506 4581 
L 3819 4581 
L 3819 4041 
L 1113 4041 
L 1113 2638 
L 3647 2638 
L 3647 2100 
L 1113 2100 
L 1113 541 
L 3925 541 
L 3925 0 
L 506 0 
z
" transform="scale(0.015625)"/>
       <path id="ArialMT-6e" d="M 422 0 
L 422 3319 
L 928 3319 
L 928 2847 
Q 1294 3394 1984 3394 
Q 2284 3394 2536 3286 
Q 2788 3178 2913 3003 
Q 3038 2828 3088 2588 
Q 3119 2431 3119 2041 
L 3119 0 
L 2556 0 
L 2556 2019 
Q 2556 2363 2490 2533 
Q 2425 2703 2258 2804 
Q 2091 2906 1866 2906 
Q 1506 2906 1245 2678 
Q 984 2450 984 1813 
L 984 0 
L 422 0 
z
" transform="scale(0.015625)"/>
       <path id="ArialMT-76" d="M 1344 0 
L 81 3319 
L 675 3319 
L 1388 1331 
Q 1503 1009 1600 663 
Q 1675 925 1809 1294 
L 2547 3319 
L 3125 3319 
L 1869 0 
L 1344 0 
z
" transform="scale(0.015625)"/>
       <path id="ArialMT-69" d="M 425 3934 
L 425 4581 
L 988 4581 
L 988 3934 
L 425 3934 
z
M 425 0 
L 425 3319 
L 988 3319 
L 988 0 
L 425 0 
z
" transform="scale(0.015625)"/>
       <path id="ArialMT-72" d="M 416 0 
L 416 3319 
L 922 3319 
L 922 2816 
Q 1116 3169 1280 3281 
Q 1444 3394 1641 3394 
Q 1925 3394 2219 3213 
L 2025 2691 
Q 1819 2813 1613 2813 
Q 1428 2813 1281 2702 
Q 1134 2591 1072 2394 
Q 978 2094 978 1738 
L 978 0 
L 416 0 
z
" transform="scale(0.015625)"/>
       <path id="ArialMT-6f" d="M 213 1659 
Q 213 2581 725 3025 
Q 1153 3394 1769 3394 
Q 2453 3394 2887 2945 
Q 3322 2497 3322 1706 
Q 3322 1066 3130 698 
Q 2938 331 2570 128 
Q 2203 -75 1769 -75 
Q 1072 -75 642 372 
Q 213 819 213 1659 
z
M 791 1659 
Q 791 1022 1069 705 
Q 1347 388 1769 388 
Q 2188 388 2466 706 
Q 2744 1025 2744 1678 
Q 2744 2294 2464 2611 
Q 2184 2928 1769 2928 
Q 1347 2928 1069 2612 
Q 791 2297 791 1659 
z
" transform="scale(0.015625)"/>
       <path id="ArialMT-6d" d="M 422 0 
L 422 3319 
L 925 3319 
L 925 2853 
Q 1081 3097 1340 3245 
Q 1600 3394 1931 3394 
Q 2300 3394 2536 3241 
Q 2772 3088 2869 2813 
Q 3263 3394 3894 3394 
Q 4388 3394 4653 3120 
Q 4919 2847 4919 2278 
L 4919 0 
L 4359 0 
L 4359 2091 
Q 4359 2428 4304 2576 
Q 4250 2725 4106 2815 
Q 3963 2906 3769 2906 
Q 3419 2906 3187 2673 
Q 2956 2441 2956 1928 
L 2956 0 
L 2394 0 
L 2394 2156 
Q 2394 2531 2256 2718 
Q 2119 2906 1806 2906 
Q 1569 2906 1367 2781 
Q 1166 2656 1075 2415 
Q 984 2175 984 1722 
L 984 0 
L 422 0 
z
" transform="scale(0.015625)"/>
       <path id="ArialMT-65" d="M 2694 1069 
L 3275 997 
Q 3138 488 2766 206 
Q 2394 -75 1816 -75 
Q 1088 -75 661 373 
Q 234 822 234 1631 
Q 234 2469 665 2931 
Q 1097 3394 1784 3394 
Q 2450 3394 2872 2941 
Q 3294 2488 3294 1666 
Q 3294 1616 3291 1516 
L 816 1516 
Q 847 969 1125 678 
Q 1403 388 1819 388 
Q 2128 388 2347 550 
Q 2566 713 2694 1069 
z
M 847 1978 
L 2700 1978 
Q 2663 2397 2488 2606 
Q 2219 2931 1791 2931 
Q 1403 2931 1139 2672 
Q 875 2413 847 1978 
z
" transform="scale(0.015625)"/>
       <path id="ArialMT-74" d="M 1650 503 
L 1731 6 
Q 1494 -44 1306 -44 
Q 1000 -44 831 53 
Q 663 150 594 308 
Q 525 466 525 972 
L 525 2881 
L 113 2881 
L 113 3319 
L 525 3319 
L 525 4141 
L 1084 4478 
L 1084 3319 
L 1650 3319 
L 1650 2881 
L 1084 2881 
L 1084 941 
Q 1084 700 1114 631 
Q 1144 563 1211 522 
Q 1278 481 1403 481 
Q 1497 481 1650 503 
z
" transform="scale(0.015625)"/>
       <path id="ArialMT-20" transform="scale(0.015625)"/>
       <path id="ArialMT-53" d="M 288 1472 
L 859 1522 
Q 900 1178 1048 958 
Q 1197 738 1509 602 
Q 1822 466 2213 466 
Q 2559 466 2825 569 
Q 3091 672 3220 851 
Q 3350 1031 3350 1244 
Q 3350 1459 3225 1620 
Q 3100 1781 2813 1891 
Q 2628 1963 1997 2114 
Q 1366 2266 1113 2400 
Q 784 2572 623 2826 
Q 463 3081 463 3397 
Q 463 3744 659 4045 
Q 856 4347 1234 4503 
Q 1613 4659 2075 4659 
Q 2584 4659 2973 4495 
Q 3363 4331 3572 4012 
Q 3781 3694 3797 3291 
L 3216 3247 
Q 3169 3681 2898 3903 
Q 2628 4125 2100 4125 
Q 1550 4125 1298 3923 
Q 1047 3722 1047 3438 
Q 1047 3191 1225 3031 
Q 1400 2872 2139 2705 
Q 2878 2538 3153 2413 
Q 3553 2228 3743 1945 
Q 3934 1663 3934 1294 
Q 3934 928 3725 604 
Q 3516 281 3123 101 
Q 2731 -78 2241 -78 
Q 1619 -78 1198 103 
Q 778 284 539 648 
Q 300 1013 288 1472 
z
" transform="scale(0.015625)"/>
       <path id="ArialMT-70" d="M 422 -1272 
L 422 3319 
L 934 3319 
L 934 2888 
Q 1116 3141 1344 3267 
Q 1572 3394 1897 3394 
Q 2322 3394 2647 3175 
Q 2972 2956 3137 2557 
Q 3303 2159 3303 1684 
Q 3303 1175 3120 767 
Q 2938 359 2589 142 
Q 2241 -75 1856 -75 
Q 1575 -75 1351 44 
Q 1128 163 984 344 
L 984 -1272 
L 422 -1272 
z
M 931 1641 
Q 931 1000 1190 694 
Q 1450 388 1819 388 
Q 2194 388 2461 705 
Q 2728 1022 2728 1688 
Q 2728 2322 2467 2637 
Q 2206 2953 1844 2953 
Q 1484 2953 1207 2617 
Q 931 2281 931 1641 
z
" transform="scale(0.015625)"/>
       <path id="ArialMT-73" d="M 197 991 
L 753 1078 
Q 800 744 1014 566 
Q 1228 388 1613 388 
Q 2000 388 2187 545 
Q 2375 703 2375 916 
Q 2375 1106 2209 1216 
Q 2094 1291 1634 1406 
Q 1016 1563 777 1677 
Q 538 1791 414 1992 
Q 291 2194 291 2438 
Q 291 2659 392 2848 
Q 494 3038 669 3163 
Q 800 3259 1026 3326 
Q 1253 3394 1513 3394 
Q 1903 3394 2198 3281 
Q 2494 3169 2634 2976 
Q 2775 2784 2828 2463 
L 2278 2388 
Q 2241 2644 2061 2787 
Q 1881 2931 1553 2931 
Q 1166 2931 1000 2803 
Q 834 2675 834 2503 
Q 834 2394 903 2306 
Q 972 2216 1119 2156 
Q 1203 2125 1616 2013 
Q 2213 1853 2448 1751 
Q 2684 1650 2818 1456 
Q 2953 1263 2953 975 
Q 2953 694 2789 445 
Q 2625 197 2315 61 
Q 2006 -75 1616 -75 
Q 969 -75 630 194 
Q 291 463 197 991 
z
" transform="scale(0.015625)"/>
      </defs>
      <use xlink:href="#ArialMT-45"/>
      <use xlink:href="#ArialMT-6e" x="66.699219"/>
      <use xlink:href="#ArialMT-76" x="122.314453"/>
      <use xlink:href="#ArialMT-69" x="172.314453"/>
      <use xlink:href="#ArialMT-72" x="194.53125"/>
      <use xlink:href="#ArialMT-6f" x="227.832031"/>
      <use xlink:href="#ArialMT-6e" x="283.447266"/>
      <use xlink:href="#ArialMT-6d" x="339.0625"/>
      <use xlink:href="#ArialMT-65" x="422.363281"/>
      <use xlink:href="#ArialMT-6e" x="477.978516"/>
      <use xlink:href="#ArialMT-74" x="533.59375"/>
      <use xlink:href="#ArialMT-20" x="561.376953"/>
      <use xlink:href="#ArialMT-53" x="589.160156"/>
      <use xlink:href="#ArialMT-74" x="655.859375"/>
      <use xlink:href="#ArialMT-65" x="683.642578"/>
      <use xlink:href="#ArialMT-70" x="739.257812"/>
      <use xlink:href="#ArialMT-73" x="794.873047"/>
     </g>
    </g>
    <g id="text_8">
     <!-- 1e8 -->
     <g style="fill: #262626" transform="translate(396.368906 338.017437)scale(0.11 -0.11)">
      <use xlink:href="#ArialMT-31"/>
      <use xlink:href="#ArialMT-65" x="55.615234"/>
      <use xlink:href="#ArialMT-38" x="111.230469"/>
     </g>
    </g>
   </g>
   <g id="matplotlib.axis_2">
    <g id="ytick_1">
     <g id="line2d_7">
      <path d="M 57.6 295.488 
L 414.72 295.488 
" clip-path="url(#p08efe9f688)" style="fill: none; stroke: #ffffff; stroke-linecap: round"/>
     </g>
     <g id="text_9">
      <!-- 0.0 -->
      <g style="fill: #262626" transform="translate(32.81 299.424797)scale(0.11 -0.11)">
       <use xlink:href="#ArialMT-30"/>
       <use xlink:href="#ArialMT-2e" x="55.615234"/>
       <use xlink:href="#ArialMT-30" x="83.398438"/>
      </g>
     </g>
    </g>
    <g id="ytick_2">
     <g id="line2d_8">
      <path d="M 57.6 242.705455 
L 414.72 242.705455 
" clip-path="url(#p08efe9f688)" style="fill: none; stroke: #ffffff; stroke-linecap: round"/>
     </g>
     <g id="text_10">
      <!-- 0.2 -->
      <g style="fill: #262626" transform="translate(32.81 246.642251)scale(0.11 -0.11)">
       <use xlink:href="#ArialMT-30"/>
       <use xlink:href="#ArialMT-2e" x="55.615234"/>
       <use xlink:href="#ArialMT-32" x="83.398438"/>
      </g>
     </g>
    </g>
    <g id="ytick_3">
     <g id="line2d_9">
      <path d="M 57.6 189.922909 
L 414.72 189.922909 
" clip-path="url(#p08efe9f688)" style="fill: none; stroke: #ffffff; stroke-linecap: round"/>
     </g>
     <g id="text_11">
      <!-- 0.4 -->
      <g style="fill: #262626" transform="translate(32.81 193.859706)scale(0.11 -0.11)">
       <use xlink:href="#ArialMT-30"/>
       <use xlink:href="#ArialMT-2e" x="55.615234"/>
       <use xlink:href="#ArialMT-34" x="83.398438"/>
      </g>
     </g>
    </g>
    <g id="ytick_4">
     <g id="line2d_10">
      <path d="M 57.6 137.140364 
L 414.72 137.140364 
" clip-path="url(#p08efe9f688)" style="fill: none; stroke: #ffffff; stroke-linecap: round"/>
     </g>
     <g id="text_12">
      <!-- 0.6 -->
      <g style="fill: #262626" transform="translate(32.81 141.077161)scale(0.11 -0.11)">
       <use xlink:href="#ArialMT-30"/>
       <use xlink:href="#ArialMT-2e" x="55.615234"/>
       <use xlink:href="#ArialMT-36" x="83.398438"/>
      </g>
     </g>
    </g>
    <g id="ytick_5">
     <g id="line2d_11">
      <path d="M 57.6 84.357818 
L 414.72 84.357818 
" clip-path="url(#p08efe9f688)" style="fill: none; stroke: #ffffff; stroke-linecap: round"/>
     </g>
     <g id="text_13">
      <!-- 0.8 -->
      <g style="fill: #262626" transform="translate(32.81 88.294615)scale(0.11 -0.11)">
       <use xlink:href="#ArialMT-30"/>
       <use xlink:href="#ArialMT-2e" x="55.615234"/>
       <use xlink:href="#ArialMT-38" x="83.398438"/>
      </g>
     </g>
    </g>
    <g id="text_14">
     <!-- Returns -->
     <g style="fill: #262626" transform="translate(26.425 195.5355)rotate(-90)scale(0.12 -0.12)">
      <defs>
       <path id="ArialMT-52" d="M 503 0 
L 503 4581 
L 2534 4581 
Q 3147 4581 3465 4457 
Q 3784 4334 3975 4021 
Q 4166 3709 4166 3331 
Q 4166 2844 3850 2509 
Q 3534 2175 2875 2084 
Q 3116 1969 3241 1856 
Q 3506 1613 3744 1247 
L 4541 0 
L 3778 0 
L 3172 953 
Q 2906 1366 2734 1584 
Q 2563 1803 2427 1890 
Q 2291 1978 2150 2013 
Q 2047 2034 1813 2034 
L 1109 2034 
L 1109 0 
L 503 0 
z
M 1109 2559 
L 2413 2559 
Q 2828 2559 3062 2645 
Q 3297 2731 3419 2920 
Q 3541 3109 3541 3331 
Q 3541 3656 3305 3865 
Q 3069 4075 2559 4075 
L 1109 4075 
L 1109 2559 
z
" transform="scale(0.015625)"/>
       <path id="ArialMT-75" d="M 2597 0 
L 2597 488 
Q 2209 -75 1544 -75 
Q 1250 -75 995 37 
Q 741 150 617 320 
Q 494 491 444 738 
Q 409 903 409 1263 
L 409 3319 
L 972 3319 
L 972 1478 
Q 972 1038 1006 884 
Q 1059 663 1231 536 
Q 1403 409 1656 409 
Q 1909 409 2131 539 
Q 2353 669 2445 892 
Q 2538 1116 2538 1541 
L 2538 3319 
L 3100 3319 
L 3100 0 
L 2597 0 
z
" transform="scale(0.015625)"/>
      </defs>
      <use xlink:href="#ArialMT-52"/>
      <use xlink:href="#ArialMT-65" x="72.216797"/>
      <use xlink:href="#ArialMT-74" x="127.832031"/>
      <use xlink:href="#ArialMT-75" x="155.615234"/>
      <use xlink:href="#ArialMT-72" x="211.230469"/>
      <use xlink:href="#ArialMT-6e" x="244.53125"/>
      <use xlink:href="#ArialMT-73" x="300.146484"/>
     </g>
    </g>
   </g>
   <g id="line2d_12">
    <path d="M 73.832727 295.488 
L 74.482296 295.488 
L 74.61221 282.292364 
L 74.742124 295.488 
L 85.784795 295.488 
L 85.914709 282.292364 
L 86.044623 295.488 
L 88.902726 295.488 
L 89.03264 277.893818 
L 89.162554 295.488 
L 93.579622 295.488 
L 93.709536 277.893818 
L 93.83945 295.488 
L 96.307812 295.488 
L 96.437726 286.690909 
L 96.567639 295.488 
L 99.036001 295.488 
L 99.165915 286.690909 
L 99.295829 295.488 
L 100.984708 295.488 
L 101.114622 282.292364 
L 101.244536 295.488 
L 102.41376 295.488 
L 102.543673 282.292364 
L 102.673587 295.488 
L 103.193242 295.488 
L 103.323156 286.690909 
L 103.45307 295.488 
L 105.53169 295.488 
L 105.791518 282.292364 
L 105.921432 295.488 
L 108.519708 295.488 
L 108.649621 282.292364 
L 108.779535 282.292364 
L 108.909449 295.488 
L 110.078673 295.488 
L 110.208587 277.893818 
L 110.3385 295.488 
L 112.417121 295.488 
L 112.547035 282.292364 
L 112.676949 295.488 
L 113.06669 295.488 
L 113.196604 282.292364 
L 113.326518 295.488 
L 113.716259 295.488 
L 113.846173 282.292364 
L 113.976086 295.488 
L 114.495742 295.488 
L 114.625655 282.292364 
L 114.755569 295.488 
L 116.444448 295.488 
L 116.574362 286.690909 
L 116.704276 295.488 
L 116.83419 295.488 
L 116.964103 286.690909 
L 117.094017 295.488 
L 117.353845 295.488 
L 117.483759 282.292364 
L 117.613672 282.292364 
L 117.743586 295.488 
L 117.8735 295.488 
L 118.003414 277.893818 
L 118.133328 295.488 
L 119.172638 295.488 
L 119.302552 286.690909 
L 119.432465 295.488 
L 119.692293 295.488 
L 119.822207 277.893818 
L 119.95212 295.488 
L 123.71962 295.488 
L 123.849534 277.893818 
L 123.979448 295.488 
L 124.109362 295.488 
L 124.239275 286.690909 
L 124.369189 295.488 
L 125.278586 295.488 
L 125.408499 282.292364 
L 125.538413 295.488 
L 126.707637 295.488 
L 126.837551 286.690909 
L 126.967465 295.488 
L 128.136689 295.488 
L 128.266603 282.292364 
L 128.396516 295.488 
L 130.215309 295.488 
L 130.345223 282.292364 
L 130.475137 295.488 
L 130.734965 295.488 
L 130.864878 282.292364 
L 130.994792 282.292364 
L 131.124706 295.488 
L 131.904189 295.488 
L 132.034102 282.292364 
L 132.164016 295.488 
L 133.982809 295.488 
L 134.112723 282.292364 
L 134.242637 295.488 
L 135.022119 295.488 
L 135.152033 282.292364 
L 135.281947 295.488 
L 135.671688 295.488 
L 135.801602 277.893818 
L 135.931516 295.488 
L 136.06143 295.488 
L 136.191343 282.292364 
L 136.321257 282.292364 
L 136.451171 295.488 
L 136.581085 295.488 
L 136.840912 282.292364 
L 136.970826 295.488 
L 137.10074 286.690909 
L 137.230654 295.488 
L 138.399878 295.488 
L 138.529792 282.292364 
L 138.659705 295.488 
L 139.17936 295.488 
L 139.309274 286.690909 
L 139.439188 269.096727 
L 139.569102 282.292364 
L 139.699016 273.495273 
L 139.828929 282.292364 
L 139.958843 277.893818 
L 140.088757 255.901091 
L 140.218671 273.495273 
L 140.478498 225.111273 
L 140.608412 295.488 
L 140.738326 277.893818 
L 140.86824 216.314182 
L 141.128067 273.495273 
L 141.387895 233.908364 
L 141.517809 255.901091 
L 141.647722 247.104 
L 141.777636 251.502545 
L 141.90755 216.314182 
L 142.037464 229.509818 
L 142.167377 207.517091 
L 142.297291 229.509818 
L 142.427205 225.111273 
L 142.557119 233.908364 
L 142.687033 264.698182 
L 142.816946 176.727273 
L 143.076774 247.104 
L 143.206688 238.306909 
L 143.466515 194.321455 
L 143.596429 229.509818 
L 143.726343 181.125818 
L 143.856257 242.705455 
L 143.98617 225.111273 
L 144.116084 176.727273 
L 144.245998 225.111273 
L 144.375912 167.930182 
L 144.505826 167.930182 
L 144.765653 225.111273 
L 144.895567 176.727273 
L 145.025481 172.328727 
L 145.285308 194.321455 
L 145.415222 150.336 
L 145.545136 176.727273 
L 145.67505 159.133091 
L 145.804963 163.531636 
L 145.934877 154.734545 
L 146.064791 189.922909 
L 146.194705 132.741818 
L 146.324619 154.734545 
L 146.454532 198.72 
L 146.584446 150.336 
L 146.71436 194.321455 
L 146.844274 185.524364 
L 146.974187 185.524364 
L 147.104101 119.546182 
L 147.363929 176.727273 
L 147.493843 167.930182 
L 147.623756 167.930182 
L 147.75367 172.328727 
L 147.883584 172.328727 
L 148.013498 176.727273 
L 148.143412 154.734545 
L 148.273325 176.727273 
L 148.403239 229.509818 
L 148.533153 181.125818 
L 148.663067 181.125818 
L 148.79298 172.328727 
L 148.922894 203.118545 
L 149.182722 128.343273 
L 149.312636 137.140364 
L 149.442549 137.140364 
L 149.572463 167.930182 
L 149.702377 132.741818 
L 149.962205 189.922909 
L 150.092118 106.350545 
L 150.351946 211.915636 
L 150.48186 128.343273 
L 150.611773 163.531636 
L 150.741687 128.343273 
L 150.871601 181.125818 
L 151.131429 154.734545 
L 151.391256 176.727273 
L 151.52117 137.140364 
L 151.910911 189.922909 
L 152.300653 132.741818 
L 152.430566 154.734545 
L 152.56048 150.336 
L 152.690394 163.531636 
L 152.820308 141.538909 
L 152.950222 207.517091 
L 153.080135 163.531636 
L 153.339963 194.321455 
L 153.729704 154.734545 
L 153.989532 181.125818 
L 154.119446 141.538909 
L 154.249359 141.538909 
L 154.379273 172.328727 
L 154.639101 145.937455 
L 155.028842 189.922909 
L 155.28867 106.350545 
L 155.418583 216.314182 
L 155.548497 163.531636 
L 155.678411 172.328727 
L 155.938239 119.546182 
L 156.068152 172.328727 
L 156.457894 106.350545 
L 156.717721 163.531636 
L 156.847635 110.749091 
L 156.977549 181.125818 
L 157.107463 141.538909 
L 157.237376 163.531636 
L 157.36729 163.531636 
L 157.497204 203.118545 
L 157.757032 150.336 
L 157.886945 167.930182 
L 158.016859 163.531636 
L 158.146773 189.922909 
L 158.4066 154.734545 
L 158.666428 189.922909 
L 158.796342 181.125818 
L 159.056169 119.546182 
L 159.186083 145.937455 
L 159.315997 198.72 
L 159.445911 141.538909 
L 159.575825 181.125818 
L 159.705738 163.531636 
L 159.835652 106.350545 
L 159.965566 128.343273 
L 160.09548 172.328727 
L 160.225393 154.734545 
L 160.355307 189.922909 
L 160.615135 154.734545 
L 160.745049 154.734545 
L 160.874962 185.524364 
L 161.004876 115.147636 
L 161.13479 123.944727 
L 161.264704 93.154909 
L 161.394617 185.524364 
L 161.784359 110.749091 
L 161.914273 119.546182 
L 162.044186 189.922909 
L 162.304014 163.531636 
L 162.433928 163.531636 
L 162.563842 194.321455 
L 162.693755 150.336 
L 162.823669 172.328727 
L 162.953583 119.546182 
L 163.21341 150.336 
L 163.343324 132.741818 
L 163.473238 132.741818 
L 163.603152 150.336 
L 163.733066 141.538909 
L 163.862979 150.336 
L 163.992893 123.944727 
L 164.122807 150.336 
L 164.252721 93.154909 
L 164.382635 172.328727 
L 164.512548 181.125818 
L 164.642462 132.741818 
L 164.772376 172.328727 
L 164.90229 163.531636 
L 165.032203 123.944727 
L 165.162117 167.930182 
L 165.292031 163.531636 
L 165.551859 110.749091 
L 165.681772 145.937455 
L 165.811686 132.741818 
L 166.071514 163.531636 
L 166.201427 172.328727 
L 166.331341 97.553455 
L 166.461255 163.531636 
L 166.591169 123.944727 
L 166.721083 203.118545 
L 166.850996 101.952 
L 166.98091 115.147636 
L 167.110824 176.727273 
L 167.240738 141.538909 
L 167.370652 167.930182 
L 167.500565 71.162182 
L 167.630479 141.538909 
L 167.890307 123.944727 
L 168.02022 167.930182 
L 168.150134 128.343273 
L 168.409962 181.125818 
L 168.669789 110.749091 
L 168.799703 176.727273 
L 168.929617 110.749091 
L 169.059531 159.133091 
L 169.189445 154.734545 
L 169.319358 154.734545 
L 169.449272 172.328727 
L 169.579186 62.365091 
L 169.839013 194.321455 
L 169.968927 84.357818 
L 170.098841 172.328727 
L 170.228755 163.531636 
L 170.358669 123.944727 
L 170.488582 123.944727 
L 170.618496 154.734545 
L 170.74841 75.560727 
L 170.878324 176.727273 
L 171.008237 189.922909 
L 171.268065 97.553455 
L 171.397979 101.952 
L 171.527893 159.133091 
L 171.657806 163.531636 
L 171.78772 132.741818 
L 172.047548 203.118545 
L 172.177462 167.930182 
L 172.307375 163.531636 
L 172.437289 137.140364 
L 172.567203 141.538909 
L 172.697117 141.538909 
L 172.956944 150.336 
L 173.086858 101.952 
L 173.216772 154.734545 
L 173.346686 150.336 
L 173.476599 181.125818 
L 173.606513 141.538909 
L 173.736427 189.922909 
L 173.866341 163.531636 
L 173.996255 110.749091 
L 174.126168 189.922909 
L 174.256082 141.538909 
L 174.51591 194.321455 
L 174.645823 137.140364 
L 174.775737 159.133091 
L 174.905651 154.734545 
L 175.035565 181.125818 
L 175.165479 141.538909 
L 175.295392 198.72 
L 175.55522 141.538909 
L 175.685134 167.930182 
L 175.815047 93.154909 
L 175.944961 101.952 
L 176.074875 154.734545 
L 176.204789 141.538909 
L 176.334703 167.930182 
L 176.464616 145.937455 
L 176.59453 150.336 
L 176.724444 145.937455 
L 176.854358 132.741818 
L 176.984272 150.336 
L 177.114185 137.140364 
L 177.244099 176.727273 
L 177.374013 150.336 
L 177.503927 163.531636 
L 177.63384 154.734545 
L 177.763754 159.133091 
L 177.893668 145.937455 
L 178.023582 172.328727 
L 178.153496 172.328727 
L 178.413323 106.350545 
L 178.543237 176.727273 
L 178.673151 132.741818 
L 178.932978 163.531636 
L 179.062892 128.343273 
L 179.192806 137.140364 
L 179.32272 167.930182 
L 179.452633 141.538909 
L 179.582547 145.937455 
L 179.712461 101.952 
L 179.842375 172.328727 
L 179.972289 132.741818 
L 180.102202 172.328727 
L 180.232116 115.147636 
L 180.36203 154.734545 
L 180.491944 137.140364 
L 180.621857 181.125818 
L 180.751771 128.343273 
L 180.881685 123.944727 
L 181.011599 128.343273 
L 181.141513 128.343273 
L 181.271426 132.741818 
L 181.40134 159.133091 
L 181.531254 93.154909 
L 181.791082 176.727273 
L 181.920995 172.328727 
L 182.050909 106.350545 
L 182.180823 128.343273 
L 182.310737 128.343273 
L 182.44065 119.546182 
L 182.700478 167.930182 
L 182.830392 101.952 
L 182.960306 137.140364 
L 183.090219 123.944727 
L 183.220133 128.343273 
L 183.350047 145.937455 
L 183.479961 141.538909 
L 183.609874 88.756364 
L 183.739788 159.133091 
L 183.869702 159.133091 
L 183.999616 119.546182 
L 184.12953 176.727273 
L 184.389357 132.741818 
L 184.519271 150.336 
L 184.649185 145.937455 
L 184.779099 159.133091 
L 185.038926 150.336 
L 185.16884 137.140364 
L 185.298754 154.734545 
L 185.428667 198.72 
L 185.688495 132.741818 
L 185.818409 141.538909 
L 185.948323 106.350545 
L 186.078236 154.734545 
L 186.20815 123.944727 
L 186.467978 172.328727 
L 186.597892 132.741818 
L 186.727805 145.937455 
L 186.857719 172.328727 
L 186.987633 167.930182 
L 187.117547 137.140364 
L 187.377374 163.531636 
L 187.637202 145.937455 
L 187.767116 167.930182 
L 187.897029 141.538909 
L 188.026943 176.727273 
L 188.156857 176.727273 
L 188.286771 172.328727 
L 188.416684 181.125818 
L 188.546598 181.125818 
L 188.676512 167.930182 
L 188.806426 172.328727 
L 188.93634 163.531636 
L 189.066253 163.531636 
L 189.196167 137.140364 
L 189.585909 159.133091 
L 189.845736 106.350545 
L 189.97565 185.524364 
L 190.105564 176.727273 
L 190.235477 154.734545 
L 190.365391 93.154909 
L 190.495305 185.524364 
L 190.625219 132.741818 
L 190.755133 189.922909 
L 190.885046 150.336 
L 191.01496 159.133091 
L 191.144874 115.147636 
L 191.274788 189.922909 
L 191.404702 189.922909 
L 191.534615 159.133091 
L 191.794443 93.154909 
L 191.924357 163.531636 
L 192.05427 110.749091 
L 192.184184 159.133091 
L 192.314098 128.343273 
L 192.444012 141.538909 
L 192.573926 181.125818 
L 192.703839 137.140364 
L 192.833753 132.741818 
L 192.963667 159.133091 
L 193.093581 115.147636 
L 193.223494 123.944727 
L 193.353408 123.944727 
L 193.483322 159.133091 
L 193.613236 141.538909 
L 193.74315 163.531636 
L 193.873063 159.133091 
L 194.132891 141.538909 
L 194.262805 150.336 
L 194.392719 128.343273 
L 194.522632 128.343273 
L 194.652546 141.538909 
L 194.78246 172.328727 
L 195.302115 115.147636 
L 195.561943 176.727273 
L 195.691856 106.350545 
L 195.82177 176.727273 
L 195.951684 101.952 
L 196.211512 176.727273 
L 196.341425 115.147636 
L 196.731167 189.922909 
L 196.86108 167.930182 
L 196.990994 110.749091 
L 197.120908 198.72 
L 197.250822 79.959273 
L 197.380736 115.147636 
L 197.510649 110.749091 
L 197.640563 163.531636 
L 197.770477 159.133091 
L 197.900391 119.546182 
L 198.030304 137.140364 
L 198.160218 203.118545 
L 198.420046 154.734545 
L 198.54996 159.133091 
L 198.679873 128.343273 
L 198.809787 128.343273 
L 198.939701 176.727273 
L 199.069615 132.741818 
L 199.199529 159.133091 
L 199.459356 137.140364 
L 199.58927 163.531636 
L 199.849097 137.140364 
L 199.979011 163.531636 
L 200.108925 159.133091 
L 200.238839 159.133091 
L 200.368753 172.328727 
L 200.498666 123.944727 
L 200.758494 132.741818 
L 200.888408 159.133091 
L 201.018322 159.133091 
L 201.148235 163.531636 
L 201.408063 141.538909 
L 201.66789 167.930182 
L 201.797804 115.147636 
L 201.927718 132.741818 
L 202.057632 167.930182 
L 202.577287 119.546182 
L 202.707201 172.328727 
L 202.837114 176.727273 
L 202.967028 132.741818 
L 203.096942 132.741818 
L 203.226856 163.531636 
L 203.35677 150.336 
L 203.616597 159.133091 
L 203.876425 132.741818 
L 204.006339 132.741818 
L 204.136252 141.538909 
L 204.266166 189.922909 
L 204.39608 97.553455 
L 204.525994 132.741818 
L 204.655907 207.517091 
L 204.915735 123.944727 
L 205.045649 181.125818 
L 205.175563 150.336 
L 205.305476 172.328727 
L 205.43539 154.734545 
L 205.565304 185.524364 
L 205.695218 154.734545 
L 205.825132 167.930182 
L 205.955045 110.749091 
L 206.214873 181.125818 
L 206.344787 159.133091 
L 206.4747 115.147636 
L 206.604614 167.930182 
L 206.734528 115.147636 
L 206.864442 141.538909 
L 206.994356 141.538909 
L 207.124269 119.546182 
L 207.254183 128.343273 
L 207.384097 185.524364 
L 207.643924 110.749091 
L 207.773838 141.538909 
L 207.903752 110.749091 
L 208.033666 132.741818 
L 208.16358 97.553455 
L 208.423407 163.531636 
L 208.553321 176.727273 
L 208.683235 115.147636 
L 208.813149 154.734545 
L 208.943062 128.343273 
L 209.072976 132.741818 
L 209.20289 88.756364 
L 209.332804 181.125818 
L 209.462717 137.140364 
L 209.592631 132.741818 
L 209.722545 141.538909 
L 209.852459 123.944727 
L 209.982373 123.944727 
L 210.112286 194.321455 
L 210.2422 110.749091 
L 210.372114 128.343273 
L 210.631942 110.749091 
L 210.761855 110.749091 
L 210.891769 145.937455 
L 211.021683 145.937455 
L 211.151597 154.734545 
L 211.28151 150.336 
L 211.411424 128.343273 
L 211.541338 145.937455 
L 211.671252 115.147636 
L 211.801166 110.749091 
L 211.931079 163.531636 
L 212.060993 150.336 
L 212.190907 167.930182 
L 212.450734 88.756364 
L 212.580648 172.328727 
L 212.710562 163.531636 
L 212.97039 88.756364 
L 213.100303 154.734545 
L 213.230217 110.749091 
L 213.360131 141.538909 
L 213.490045 145.937455 
L 213.619959 176.727273 
L 214.0097 132.741818 
L 214.139614 137.140364 
L 214.269527 150.336 
L 214.399441 150.336 
L 214.529355 145.937455 
L 214.659269 123.944727 
L 214.919096 194.321455 
L 215.04901 159.133091 
L 215.178924 163.531636 
L 215.438752 88.756364 
L 215.568665 167.930182 
L 215.698579 163.531636 
L 215.828493 137.140364 
L 215.958407 159.133091 
L 216.08832 128.343273 
L 216.218234 137.140364 
L 216.348148 132.741818 
L 216.478062 110.749091 
L 216.607976 154.734545 
L 216.737889 132.741818 
L 216.867803 141.538909 
L 216.997717 172.328727 
L 217.127631 88.756364 
L 217.257544 150.336 
L 217.517372 141.538909 
L 217.647286 159.133091 
L 217.7772 154.734545 
L 217.907113 141.538909 
L 218.037027 176.727273 
L 218.166941 159.133091 
L 218.296855 181.125818 
L 218.686596 110.749091 
L 218.81651 172.328727 
L 218.946424 115.147636 
L 219.076337 185.524364 
L 219.336165 115.147636 
L 219.595993 167.930182 
L 219.725906 97.553455 
L 220.115648 159.133091 
L 220.375475 101.952 
L 220.765217 185.524364 
L 220.89513 145.937455 
L 221.025044 159.133091 
L 221.154958 106.350545 
L 221.284872 185.524364 
L 221.544699 128.343273 
L 221.674613 110.749091 
L 221.804527 154.734545 
L 221.934441 119.546182 
L 222.064354 167.930182 
L 222.324182 97.553455 
L 222.58401 167.930182 
L 222.713923 163.531636 
L 222.843837 145.937455 
L 222.973751 106.350545 
L 223.233579 150.336 
L 223.363492 150.336 
L 223.493406 154.734545 
L 223.62332 137.140364 
L 223.753234 137.140364 
L 223.883147 88.756364 
L 224.142975 115.147636 
L 224.272889 115.147636 
L 224.402803 150.336 
L 224.532716 79.959273 
L 224.66263 141.538909 
L 224.792544 123.944727 
L 224.922458 154.734545 
L 225.052371 106.350545 
L 225.442113 154.734545 
L 225.572027 172.328727 
L 225.70194 172.328727 
L 225.831854 167.930182 
L 226.091682 119.546182 
L 226.221596 110.749091 
L 226.351509 93.154909 
L 226.741251 163.531636 
L 227.001078 106.350545 
L 227.130992 141.538909 
L 227.260906 141.538909 
L 227.39082 123.944727 
L 227.520733 132.741818 
L 227.650647 123.944727 
L 227.780561 163.531636 
L 227.910475 150.336 
L 228.040389 154.734545 
L 228.170302 163.531636 
L 228.43013 141.538909 
L 228.560044 154.734545 
L 228.689957 154.734545 
L 228.819871 132.741818 
L 228.949785 172.328727 
L 229.079699 132.741818 
L 229.209613 172.328727 
L 229.339526 154.734545 
L 229.46944 176.727273 
L 229.599354 141.538909 
L 229.729268 176.727273 
L 229.989095 123.944727 
L 230.119009 159.133091 
L 230.378837 115.147636 
L 230.50875 154.734545 
L 230.638664 93.154909 
L 230.898492 159.133091 
L 231.028406 154.734545 
L 231.158319 119.546182 
L 231.288233 123.944727 
L 231.418147 189.922909 
L 231.677974 141.538909 
L 231.807888 123.944727 
L 231.937802 150.336 
L 232.067716 141.538909 
L 232.19763 145.937455 
L 232.327543 128.343273 
L 232.587371 145.937455 
L 232.717285 141.538909 
L 232.847199 145.937455 
L 232.977112 189.922909 
L 233.23694 150.336 
L 233.496767 123.944727 
L 233.626681 97.553455 
L 233.756595 150.336 
L 233.886509 106.350545 
L 234.146336 119.546182 
L 234.27625 106.350545 
L 234.536078 167.930182 
L 234.795905 101.952 
L 234.925819 167.930182 
L 235.055733 163.531636 
L 235.185647 141.538909 
L 235.31556 150.336 
L 235.445474 176.727273 
L 235.575388 163.531636 
L 235.705302 194.321455 
L 235.835216 115.147636 
L 235.965129 154.734545 
L 236.095043 141.538909 
L 236.224957 141.538909 
L 236.354871 172.328727 
L 236.614698 123.944727 
L 236.744612 132.741818 
L 236.874526 167.930182 
L 237.00444 128.343273 
L 237.134353 150.336 
L 237.264267 145.937455 
L 237.394181 163.531636 
L 237.654009 128.343273 
L 237.783922 141.538909 
L 237.913836 176.727273 
L 238.04375 172.328727 
L 238.173664 181.125818 
L 238.303577 128.343273 
L 238.433491 176.727273 
L 238.563405 141.538909 
L 238.693319 185.524364 
L 239.08306 106.350545 
L 239.342888 194.321455 
L 239.602715 159.133091 
L 239.732629 66.763636 
L 239.862543 163.531636 
L 240.12237 137.140364 
L 240.252284 132.741818 
L 240.382198 159.133091 
L 240.512112 154.734545 
L 240.642026 159.133091 
L 240.771939 150.336 
L 240.901853 128.343273 
L 241.031767 128.343273 
L 241.161681 123.944727 
L 241.421508 207.517091 
L 241.551422 150.336 
L 241.681336 145.937455 
L 241.81125 75.560727 
L 242.071077 167.930182 
L 242.200991 128.343273 
L 242.330905 132.741818 
L 242.460819 115.147636 
L 242.590732 181.125818 
L 242.720646 128.343273 
L 242.85056 137.140364 
L 242.980474 128.343273 
L 243.370215 176.727273 
L 243.500129 128.343273 
L 243.630043 132.741818 
L 243.759956 128.343273 
L 243.88987 106.350545 
L 244.279611 159.133091 
L 244.409525 159.133091 
L 244.539439 141.538909 
L 244.669353 154.734545 
L 244.799267 137.140364 
L 244.92918 141.538909 
L 245.059094 141.538909 
L 245.189008 101.952 
L 245.318922 159.133091 
L 245.448836 84.357818 
L 245.708663 150.336 
L 245.838577 141.538909 
L 245.968491 150.336 
L 246.098404 172.328727 
L 246.228318 132.741818 
L 246.358232 194.321455 
L 246.488146 97.553455 
L 246.61806 137.140364 
L 246.747973 88.756364 
L 246.877887 154.734545 
L 247.267629 97.553455 
L 247.527456 181.125818 
L 247.787284 132.741818 
L 247.917197 163.531636 
L 248.047111 141.538909 
L 248.306939 159.133091 
L 248.566766 128.343273 
L 248.69668 181.125818 
L 248.826594 154.734545 
L 248.956508 154.734545 
L 249.086421 132.741818 
L 249.216335 137.140364 
L 249.346249 176.727273 
L 249.476163 137.140364 
L 249.865904 159.133091 
L 249.995818 150.336 
L 250.125732 163.531636 
L 250.385559 137.140364 
L 250.515473 154.734545 
L 250.645387 132.741818 
L 250.775301 75.560727 
L 250.905214 137.140364 
L 251.165042 150.336 
L 251.294956 150.336 
L 251.42487 123.944727 
L 251.554783 145.937455 
L 251.684697 123.944727 
L 251.944525 163.531636 
L 252.074439 163.531636 
L 252.204352 154.734545 
L 252.334266 106.350545 
L 252.46418 128.343273 
L 252.594094 172.328727 
L 252.724007 172.328727 
L 252.983835 93.154909 
L 253.113749 101.952 
L 253.373576 154.734545 
L 253.50349 150.336 
L 253.763318 115.147636 
L 253.893231 123.944727 
L 254.282973 181.125818 
L 254.412887 106.350545 
L 254.5428 115.147636 
L 254.672714 115.147636 
L 254.802628 172.328727 
L 255.062456 141.538909 
L 255.192369 163.531636 
L 255.452197 128.343273 
L 255.582111 141.538909 
L 255.712024 128.343273 
L 256.23168 176.727273 
L 256.361593 137.140364 
L 256.491507 159.133091 
L 256.621421 88.756364 
L 256.881248 198.72 
L 257.011162 101.952 
L 257.27099 145.937455 
L 257.400904 137.140364 
L 257.530817 137.140364 
L 257.660731 123.944727 
L 257.790645 141.538909 
L 258.050473 123.944727 
L 258.440214 185.524364 
L 258.700041 79.959273 
L 258.829955 115.147636 
L 258.959869 110.749091 
L 259.089783 163.531636 
L 259.219697 123.944727 
L 259.34961 145.937455 
L 259.479524 119.546182 
L 259.609438 167.930182 
L 259.739352 115.147636 
L 259.869266 172.328727 
L 259.999179 57.966545 
L 260.129093 172.328727 
L 260.388921 84.357818 
L 260.518834 150.336 
L 260.778662 110.749091 
L 260.908576 154.734545 
L 261.168403 128.343273 
L 261.298317 150.336 
L 261.558145 119.546182 
L 261.688058 110.749091 
L 261.817972 181.125818 
L 262.0778 115.147636 
L 262.337627 145.937455 
L 262.467541 128.343273 
L 262.597455 172.328727 
L 262.727369 176.727273 
L 262.857283 141.538909 
L 262.987196 176.727273 
L 263.506851 79.959273 
L 263.766679 185.524364 
L 263.896593 128.343273 
L 264.026507 145.937455 
L 264.15642 93.154909 
L 264.286334 150.336 
L 264.416248 119.546182 
L 264.546162 194.321455 
L 264.676076 115.147636 
L 264.805989 137.140364 
L 264.935903 181.125818 
L 265.195731 123.944727 
L 265.325644 150.336 
L 265.455558 132.741818 
L 265.585472 163.531636 
L 265.715386 137.140364 
L 265.8453 154.734545 
L 266.105127 119.546182 
L 266.235041 132.741818 
L 266.364955 163.531636 
L 266.624782 101.952 
L 266.88461 181.125818 
L 267.014524 159.133091 
L 267.144437 163.531636 
L 267.404265 128.343273 
L 267.664093 159.133091 
L 267.794006 119.546182 
L 267.92392 185.524364 
L 268.053834 185.524364 
L 268.183748 128.343273 
L 268.313661 163.531636 
L 268.443575 150.336 
L 268.573489 123.944727 
L 268.703403 176.727273 
L 268.833317 75.560727 
L 269.093144 163.531636 
L 269.223058 163.531636 
L 269.352972 141.538909 
L 269.482886 176.727273 
L 269.612799 150.336 
L 269.742713 189.922909 
L 269.872627 119.546182 
L 270.002541 167.930182 
L 270.262368 154.734545 
L 270.392282 132.741818 
L 270.782023 181.125818 
L 271.041851 141.538909 
L 271.171765 163.531636 
L 271.301678 132.741818 
L 271.431592 181.125818 
L 271.561506 110.749091 
L 271.69142 128.343273 
L 271.821334 97.553455 
L 271.951247 128.343273 
L 272.081161 128.343273 
L 272.340989 172.328727 
L 272.470903 137.140364 
L 272.600816 176.727273 
L 272.73073 128.343273 
L 272.860644 137.140364 
L 272.990558 115.147636 
L 273.250385 145.937455 
L 273.380299 106.350545 
L 273.510213 163.531636 
L 273.77004 123.944727 
L 273.899954 128.343273 
L 274.029868 141.538909 
L 274.289696 101.952 
L 274.419609 132.741818 
L 274.549523 128.343273 
L 274.679437 141.538909 
L 274.809351 194.321455 
L 274.939264 141.538909 
L 275.069178 141.538909 
L 275.199092 154.734545 
L 275.329006 194.321455 
L 275.718747 115.147636 
L 275.978575 172.328727 
L 276.108488 110.749091 
L 276.238402 119.546182 
L 276.368316 141.538909 
L 276.49823 137.140364 
L 276.628144 101.952 
L 276.887971 159.133091 
L 277.017885 154.734545 
L 277.147799 154.734545 
L 277.407626 189.922909 
L 277.53754 84.357818 
L 277.797368 132.741818 
L 277.927281 145.937455 
L 278.187109 119.546182 
L 278.317023 119.546182 
L 278.57685 141.538909 
L 278.706764 145.937455 
L 278.966592 132.741818 
L 279.096506 137.140364 
L 279.226419 137.140364 
L 279.486247 176.727273 
L 279.746074 123.944727 
L 279.875988 176.727273 
L 280.005902 150.336 
L 280.135816 176.727273 
L 280.26573 137.140364 
L 280.525557 185.524364 
L 280.655471 141.538909 
L 280.915298 194.321455 
L 281.045212 110.749091 
L 281.175126 150.336 
L 281.30504 110.749091 
L 281.564867 189.922909 
L 281.954609 97.553455 
L 282.084523 137.140364 
L 282.34435 106.350545 
L 282.474264 176.727273 
L 282.604178 141.538909 
L 282.734091 176.727273 
L 282.864005 145.937455 
L 282.993919 141.538909 
L 283.123833 145.937455 
L 283.253747 145.937455 
L 283.38366 119.546182 
L 283.643488 181.125818 
L 283.773402 181.125818 
L 283.903316 137.140364 
L 284.033229 172.328727 
L 284.163143 123.944727 
L 284.293057 172.328727 
L 284.552884 119.546182 
L 284.682798 141.538909 
L 284.812712 106.350545 
L 284.942626 141.538909 
L 285.07254 137.140364 
L 285.202453 128.343273 
L 285.462281 167.930182 
L 285.592195 115.147636 
L 285.722108 128.343273 
L 285.852022 159.133091 
L 285.981936 163.531636 
L 286.11185 185.524364 
L 286.241764 93.154909 
L 286.371677 163.531636 
L 286.631505 88.756364 
L 286.761419 198.72 
L 286.891333 172.328727 
L 287.021246 119.546182 
L 287.15116 159.133091 
L 287.410988 110.749091 
L 287.540901 145.937455 
L 287.670815 119.546182 
L 287.800729 154.734545 
L 287.930643 132.741818 
L 288.060557 181.125818 
L 288.19047 181.125818 
L 288.320384 132.741818 
L 288.450298 163.531636 
L 288.580212 128.343273 
L 288.710126 141.538909 
L 288.840039 185.524364 
L 289.099867 132.741818 
L 289.229781 137.140364 
L 289.359694 163.531636 
L 289.489608 159.133091 
L 289.619522 110.749091 
L 289.749436 132.741818 
L 289.87935 97.553455 
L 290.009263 101.952 
L 290.269091 167.930182 
L 290.399005 141.538909 
L 290.528918 203.118545 
L 290.658832 198.72 
L 290.788746 132.741818 
L 290.91866 145.937455 
L 291.178487 198.72 
L 291.308401 119.546182 
L 291.568229 185.524364 
L 291.698143 97.553455 
L 291.95797 203.118545 
L 292.087884 88.756364 
L 292.217798 189.922909 
L 292.347711 137.140364 
L 292.477625 137.140364 
L 292.607539 132.741818 
L 292.867367 167.930182 
L 292.99728 150.336 
L 293.127194 194.321455 
L 293.257108 128.343273 
L 293.387022 145.937455 
L 293.516936 189.922909 
L 293.646849 159.133091 
L 293.776763 167.930182 
L 293.906677 53.568 
L 294.036591 185.524364 
L 294.166504 106.350545 
L 294.296418 97.553455 
L 294.426332 167.930182 
L 294.556246 110.749091 
L 294.816073 167.930182 
L 295.075901 84.357818 
L 295.335728 176.727273 
L 295.465642 137.140364 
L 295.595556 154.734545 
L 295.72547 141.538909 
L 295.855384 150.336 
L 295.985297 119.546182 
L 296.115211 137.140364 
L 296.245125 101.952 
L 296.375039 123.944727 
L 296.504953 167.930182 
L 296.634866 141.538909 
L 296.76478 172.328727 
L 297.154521 84.357818 
L 297.284435 181.125818 
L 297.414349 101.952 
L 297.544263 115.147636 
L 297.674177 110.749091 
L 297.80409 110.749091 
L 297.934004 123.944727 
L 298.063918 163.531636 
L 298.193832 163.531636 
L 298.323745 194.321455 
L 298.453659 150.336 
L 298.583573 163.531636 
L 298.713487 106.350545 
L 298.843401 141.538909 
L 298.973314 101.952 
L 299.103228 106.350545 
L 299.363056 159.133091 
L 299.622883 145.937455 
L 299.752797 154.734545 
L 299.882711 128.343273 
L 300.012625 203.118545 
L 300.142538 132.741818 
L 300.272452 154.734545 
L 300.402366 141.538909 
L 300.53228 141.538909 
L 300.662194 167.930182 
L 300.792107 93.154909 
L 300.922021 141.538909 
L 301.051935 141.538909 
L 301.181849 101.952 
L 301.311763 145.937455 
L 301.441676 101.952 
L 301.57159 159.133091 
L 301.831418 167.930182 
L 301.961331 163.531636 
L 302.091245 145.937455 
L 302.221159 84.357818 
L 302.351073 163.531636 
L 302.480987 84.357818 
L 302.870728 163.531636 
L 303.000642 75.560727 
L 303.130555 154.734545 
L 303.390383 119.546182 
L 303.520297 176.727273 
L 303.650211 159.133091 
L 303.780124 167.930182 
L 303.910038 159.133091 
L 304.039952 128.343273 
L 304.169866 137.140364 
L 304.29978 163.531636 
L 304.429693 88.756364 
L 304.559607 150.336 
L 304.689521 159.133091 
L 304.819435 137.140364 
L 304.949348 172.328727 
L 305.079262 110.749091 
L 305.33909 141.538909 
L 305.469004 128.343273 
L 305.598917 172.328727 
L 305.728831 176.727273 
L 305.858745 101.952 
L 305.988659 115.147636 
L 306.118573 150.336 
L 306.248486 123.944727 
L 306.3784 163.531636 
L 306.508314 159.133091 
L 306.638228 141.538909 
L 306.768141 101.952 
L 306.898055 150.336 
L 307.157883 106.350545 
L 307.287797 128.343273 
L 307.41771 110.749091 
L 307.547624 167.930182 
L 307.677538 93.154909 
L 307.937365 145.937455 
L 308.067279 150.336 
L 308.327107 115.147636 
L 308.716848 167.930182 
L 308.846762 128.343273 
L 308.976676 141.538909 
L 309.10659 137.140364 
L 309.236503 145.937455 
L 309.366417 163.531636 
L 309.496331 154.734545 
L 309.626245 123.944727 
L 309.756158 159.133091 
L 309.886072 115.147636 
L 310.015986 154.734545 
L 310.1459 154.734545 
L 310.275814 176.727273 
L 310.405727 137.140364 
L 310.535641 141.538909 
L 310.665555 66.763636 
L 310.795469 154.734545 
L 310.925383 132.741818 
L 311.055296 132.741818 
L 311.18521 137.140364 
L 311.445038 172.328727 
L 311.574951 154.734545 
L 311.704865 172.328727 
L 311.964693 110.749091 
L 312.094607 159.133091 
L 312.354434 115.147636 
L 312.484348 106.350545 
L 312.744175 154.734545 
L 312.874089 115.147636 
L 313.004003 119.546182 
L 313.133917 181.125818 
L 313.263831 97.553455 
L 313.393744 181.125818 
L 313.653572 97.553455 
L 313.783486 167.930182 
L 313.9134 101.952 
L 314.043313 137.140364 
L 314.173227 141.538909 
L 314.303141 159.133091 
L 314.433055 137.140364 
L 314.562968 141.538909 
L 314.692882 132.741818 
L 314.822796 154.734545 
L 314.95271 128.343273 
L 315.082624 163.531636 
L 315.212537 119.546182 
L 315.342451 132.741818 
L 315.472365 132.741818 
L 315.602279 137.140364 
L 315.862106 97.553455 
L 315.99202 141.538909 
L 316.121934 75.560727 
L 316.251848 141.538909 
L 316.381761 137.140364 
L 316.511675 137.140364 
L 316.771503 167.930182 
L 316.901417 154.734545 
L 317.03133 176.727273 
L 317.291158 141.538909 
L 317.421072 71.162182 
L 317.550985 128.343273 
L 317.680899 97.553455 
L 317.940727 203.118545 
L 318.070641 115.147636 
L 318.200554 132.741818 
L 318.330468 198.72 
L 318.460382 159.133091 
L 318.590296 159.133091 
L 318.72021 106.350545 
L 318.850123 150.336 
L 318.980037 150.336 
L 319.109951 185.524364 
L 319.369778 154.734545 
L 319.499692 172.328727 
L 319.75952 128.343273 
L 319.889434 194.321455 
L 320.019347 106.350545 
L 320.149261 172.328727 
L 320.539003 110.749091 
L 320.668916 141.538909 
L 320.79883 137.140364 
L 320.928744 181.125818 
L 321.058658 57.966545 
L 321.188571 141.538909 
L 321.318485 150.336 
L 321.448399 145.937455 
L 321.578313 150.336 
L 321.708227 101.952 
L 321.83814 172.328727 
L 321.968054 132.741818 
L 322.097968 137.140364 
L 322.227882 159.133091 
L 322.487709 101.952 
L 322.617623 110.749091 
L 322.747537 106.350545 
L 322.877451 159.133091 
L 323.007364 110.749091 
L 323.267192 132.741818 
L 323.397106 128.343273 
L 323.52702 167.930182 
L 323.656933 128.343273 
L 323.786847 159.133091 
L 323.916761 163.531636 
L 324.046675 128.343273 
L 324.176588 123.944727 
L 324.306502 123.944727 
L 324.56633 132.741818 
L 324.696244 172.328727 
L 324.826157 88.756364 
L 325.085985 141.538909 
L 325.215899 163.531636 
L 325.345813 132.741818 
L 325.475726 132.741818 
L 325.60564 167.930182 
L 325.735554 159.133091 
L 325.865468 181.125818 
L 326.125295 128.343273 
L 326.255209 150.336 
L 326.515037 115.147636 
L 326.64495 128.343273 
L 326.774864 154.734545 
L 326.904778 106.350545 
L 327.034692 101.952 
L 327.164605 163.531636 
L 327.294519 84.357818 
L 327.424433 150.336 
L 327.554347 101.952 
L 327.684261 128.343273 
L 327.814174 198.72 
L 327.944088 119.546182 
L 328.074002 145.937455 
L 328.203916 115.147636 
L 328.33383 119.546182 
L 328.463743 150.336 
L 328.593657 150.336 
L 328.723571 123.944727 
L 328.853485 132.741818 
L 328.983398 154.734545 
L 329.113312 141.538909 
L 329.243226 150.336 
L 329.37314 115.147636 
L 329.503054 150.336 
L 329.632967 88.756364 
L 329.762881 181.125818 
L 330.022709 93.154909 
L 330.282536 167.930182 
L 330.41245 88.756364 
L 330.542364 172.328727 
L 330.672278 62.365091 
L 330.802191 181.125818 
L 331.062019 128.343273 
L 331.191933 159.133091 
L 331.321847 106.350545 
L 331.45176 141.538909 
L 331.581674 137.140364 
L 331.841502 137.140364 
L 331.971415 132.741818 
L 332.231243 159.133091 
L 332.361157 110.749091 
L 332.620984 172.328727 
L 332.750898 115.147636 
L 332.880812 163.531636 
L 333.14064 110.749091 
L 333.270553 150.336 
L 333.530381 106.350545 
L 333.660295 145.937455 
L 333.790208 150.336 
L 333.920122 123.944727 
L 334.050036 145.937455 
L 334.17995 132.741818 
L 334.309864 181.125818 
L 334.569691 97.553455 
L 334.699605 141.538909 
L 334.829519 141.538909 
L 334.959433 119.546182 
L 335.21926 159.133091 
L 335.349174 75.560727 
L 335.738915 150.336 
L 335.868829 110.749091 
L 335.998743 154.734545 
L 336.128657 137.140364 
L 336.25857 145.937455 
L 336.388484 176.727273 
L 336.518398 88.756364 
L 336.778225 150.336 
L 336.908139 137.140364 
L 337.038053 106.350545 
L 337.167967 128.343273 
L 337.297881 172.328727 
L 337.427794 176.727273 
L 337.557708 176.727273 
L 337.817536 128.343273 
L 337.94745 159.133091 
L 338.077363 145.937455 
L 338.207277 115.147636 
L 338.337191 154.734545 
L 338.467105 137.140364 
L 338.597018 137.140364 
L 338.726932 154.734545 
L 338.856846 128.343273 
L 338.98676 145.937455 
L 339.116674 145.937455 
L 339.246587 115.147636 
L 339.376501 163.531636 
L 339.636329 110.749091 
L 339.766242 176.727273 
L 339.896156 119.546182 
L 340.155984 203.118545 
L 340.285898 185.524364 
L 340.415811 93.154909 
L 340.675639 141.538909 
L 340.805553 93.154909 
L 340.935467 93.154909 
L 341.06538 137.140364 
L 341.195294 110.749091 
L 341.455122 172.328727 
L 341.585035 110.749091 
L 341.844863 167.930182 
L 341.974777 141.538909 
L 342.104691 172.328727 
L 342.364518 145.937455 
L 342.624346 167.930182 
L 342.75426 198.72 
L 342.884173 189.922909 
L 343.144001 145.937455 
L 343.273915 176.727273 
L 343.533742 106.350545 
L 344.053397 189.922909 
L 344.313225 141.538909 
L 344.573052 93.154909 
L 344.702966 106.350545 
L 344.962794 154.734545 
L 345.222621 123.944727 
L 345.352535 128.343273 
L 345.482449 185.524364 
L 345.612363 137.140364 
L 345.742277 167.930182 
L 345.87219 137.140364 
L 346.002104 159.133091 
L 346.132018 110.749091 
L 346.261932 154.734545 
L 346.391845 154.734545 
L 346.521759 185.524364 
L 346.651673 176.727273 
L 346.911501 128.343273 
L 347.041414 159.133091 
L 347.171328 128.343273 
L 347.301242 132.741818 
L 347.56107 159.133091 
L 347.820897 110.749091 
L 348.080725 150.336 
L 348.340552 163.531636 
L 348.470466 97.553455 
L 348.60038 150.336 
L 348.730294 150.336 
L 348.860207 145.937455 
L 348.990121 123.944727 
L 349.120035 216.314182 
L 349.249949 97.553455 
L 349.509776 145.937455 
L 349.63969 119.546182 
L 349.899518 159.133091 
L 350.029431 154.734545 
L 350.159345 119.546182 
L 350.289259 176.727273 
L 350.549087 97.553455 
L 350.679 93.154909 
L 350.808914 141.538909 
L 351.068742 132.741818 
L 351.198655 88.756364 
L 351.328569 167.930182 
L 351.458483 154.734545 
L 351.588397 119.546182 
L 351.718311 119.546182 
L 351.848224 132.741818 
L 351.978138 132.741818 
L 352.108052 110.749091 
L 352.237966 128.343273 
L 352.36788 115.147636 
L 352.627707 150.336 
L 352.757621 181.125818 
L 353.017448 123.944727 
L 353.147362 172.328727 
L 353.277276 159.133091 
L 353.40719 185.524364 
L 353.537104 163.531636 
L 353.667017 189.922909 
L 353.796931 75.560727 
L 353.926845 167.930182 
L 354.186672 132.741818 
L 354.316586 181.125818 
L 354.836241 84.357818 
L 355.096069 163.531636 
L 355.225983 150.336 
L 355.355897 181.125818 
L 355.48581 181.125818 
L 355.745638 62.365091 
L 355.875552 97.553455 
L 356.005465 207.517091 
L 356.265293 106.350545 
L 356.525121 159.133091 
L 356.655034 150.336 
L 356.784948 154.734545 
L 356.914862 123.944727 
L 357.044776 150.336 
L 357.304603 132.741818 
L 357.434517 172.328727 
L 357.564431 154.734545 
L 357.694345 159.133091 
L 357.824258 123.944727 
L 357.954172 123.944727 
L 358.084086 154.734545 
L 358.214 123.944727 
L 358.343914 128.343273 
L 358.473827 106.350545 
L 358.603741 132.741818 
L 358.733655 110.749091 
L 358.863569 132.741818 
L 358.993482 176.727273 
L 359.123396 119.546182 
L 359.25331 115.147636 
L 359.383224 119.546182 
L 359.513138 137.140364 
L 359.643051 119.546182 
L 359.772965 128.343273 
L 359.902879 154.734545 
L 360.032793 137.140364 
L 360.162707 141.538909 
L 360.29262 137.140364 
L 360.422534 119.546182 
L 360.552448 159.133091 
L 360.682362 123.944727 
L 360.812275 159.133091 
L 360.942189 106.350545 
L 361.072103 181.125818 
L 361.331931 141.538909 
L 361.461844 132.741818 
L 361.591758 176.727273 
L 361.721672 141.538909 
L 361.9815 172.328727 
L 362.241327 141.538909 
L 362.371241 150.336 
L 362.501155 141.538909 
L 362.631068 150.336 
L 362.760982 167.930182 
L 363.02081 132.741818 
L 363.150724 163.531636 
L 363.280637 167.930182 
L 363.410551 132.741818 
L 363.540465 154.734545 
L 363.670379 132.741818 
L 363.800292 141.538909 
L 363.930206 106.350545 
L 364.190034 150.336 
L 364.319948 145.937455 
L 364.449861 159.133091 
L 364.579775 123.944727 
L 364.839603 145.937455 
L 364.969517 185.524364 
L 365.09943 145.937455 
L 365.229344 203.118545 
L 365.489172 106.350545 
L 365.748999 154.734545 
L 365.878913 137.140364 
L 366.008827 203.118545 
L 366.268654 137.140364 
L 366.398568 159.133091 
L 366.528482 106.350545 
L 366.658396 110.749091 
L 366.78831 101.952 
L 366.918223 119.546182 
L 367.048137 154.734545 
L 367.178051 150.336 
L 367.307965 93.154909 
L 367.437878 137.140364 
L 367.567792 137.140364 
L 367.697706 194.321455 
L 367.957534 128.343273 
L 368.087447 128.343273 
L 368.217361 137.140364 
L 368.347275 163.531636 
L 368.477189 115.147636 
L 368.607102 172.328727 
L 368.737016 154.734545 
L 368.86693 172.328727 
L 368.996844 110.749091 
L 369.126758 163.531636 
L 369.256671 97.553455 
L 369.386585 176.727273 
L 369.516499 159.133091 
L 369.646413 163.531636 
L 369.90624 123.944727 
L 370.036154 145.937455 
L 370.166068 101.952 
L 370.425895 163.531636 
L 370.555809 132.741818 
L 370.685723 75.560727 
L 370.815637 172.328727 
L 371.075464 106.350545 
L 371.205378 150.336 
L 371.335292 145.937455 
L 371.465206 172.328727 
L 371.725033 141.538909 
L 371.854947 163.531636 
L 371.984861 159.133091 
L 372.114775 159.133091 
L 372.244688 110.749091 
L 372.504516 163.531636 
L 372.63443 119.546182 
L 372.894257 154.734545 
L 373.024171 110.749091 
L 373.154085 172.328727 
L 373.283999 71.162182 
L 373.543826 150.336 
L 373.67374 128.343273 
L 373.803654 71.162182 
L 373.933568 115.147636 
L 374.063481 93.154909 
L 374.323309 159.133091 
L 374.453223 119.546182 
L 374.583137 141.538909 
L 374.71305 132.741818 
L 374.842964 132.741818 
L 374.972878 159.133091 
L 375.102792 128.343273 
L 375.232705 150.336 
L 375.362619 141.538909 
L 375.492533 159.133091 
L 375.622447 194.321455 
L 375.882274 97.553455 
L 376.142102 172.328727 
L 376.272016 137.140364 
L 376.401929 181.125818 
L 376.661757 97.553455 
L 376.921585 145.937455 
L 377.051498 123.944727 
L 377.181412 194.321455 
L 377.44124 119.546182 
L 377.571154 159.133091 
L 377.701067 101.952 
L 377.830981 159.133091 
L 377.960895 106.350545 
L 378.350636 154.734545 
L 378.48055 101.952 
L 378.870291 163.531636 
L 379.000205 106.350545 
L 379.260033 141.538909 
L 379.51986 88.756364 
L 379.649774 150.336 
L 379.779688 119.546182 
L 379.909602 207.517091 
L 380.169429 128.343273 
L 380.429257 163.531636 
L 380.559171 163.531636 
L 380.689084 167.930182 
L 380.818998 137.140364 
L 380.948912 150.336 
L 381.078826 110.749091 
L 381.208739 128.343273 
L 381.338653 181.125818 
L 381.468567 110.749091 
L 381.728395 185.524364 
L 381.858308 154.734545 
L 381.988222 159.133091 
L 382.118136 203.118545 
L 382.24805 101.952 
L 382.377964 137.140364 
L 382.507877 137.140364 
L 382.637791 132.741818 
L 382.767705 150.336 
L 382.897619 115.147636 
L 383.157446 128.343273 
L 383.28736 101.952 
L 383.807015 150.336 
L 383.936929 185.524364 
L 384.066843 110.749091 
L 384.196757 141.538909 
L 384.32667 128.343273 
L 384.456584 71.162182 
L 384.586498 88.756364 
L 384.846325 150.336 
L 384.976239 163.531636 
L 385.106153 141.538909 
L 385.236067 154.734545 
L 385.365981 185.524364 
L 385.495894 132.741818 
L 385.625808 128.343273 
L 385.755722 172.328727 
L 385.885636 145.937455 
L 386.145463 167.930182 
L 386.275377 132.741818 
L 386.405291 167.930182 
L 386.535205 106.350545 
L 386.665118 167.930182 
L 386.795032 145.937455 
L 386.924946 159.133091 
L 387.05486 141.538909 
L 387.184774 150.336 
L 387.314687 106.350545 
L 387.444601 159.133091 
L 387.704429 128.343273 
L 387.834342 115.147636 
L 387.964256 115.147636 
L 388.09417 159.133091 
L 388.353998 128.343273 
L 388.613825 159.133091 
L 388.873653 137.140364 
L 389.003567 79.959273 
L 389.13348 150.336 
L 389.263394 154.734545 
L 389.393308 128.343273 
L 389.523222 141.538909 
L 389.653135 141.538909 
L 389.783049 167.930182 
L 389.912963 128.343273 
L 390.042877 128.343273 
L 390.172791 123.944727 
L 390.302704 132.741818 
L 390.432618 71.162182 
L 390.562532 154.734545 
L 390.692446 163.531636 
L 390.952273 123.944727 
L 391.212101 159.133091 
L 391.342015 115.147636 
L 391.601842 181.125818 
L 391.731756 106.350545 
L 391.86167 150.336 
L 391.991584 154.734545 
L 392.121497 154.734545 
L 392.251411 115.147636 
L 392.511239 181.125818 
L 392.641152 128.343273 
L 392.771066 123.944727 
L 393.030894 150.336 
L 393.160808 150.336 
L 393.290721 97.553455 
L 393.550549 172.328727 
L 393.680463 181.125818 
L 393.810377 141.538909 
L 393.94029 185.524364 
L 394.070204 185.524364 
L 394.200118 123.944727 
L 394.330032 128.343273 
L 394.459945 185.524364 
L 394.719773 115.147636 
L 394.849687 150.336 
L 395.109514 123.944727 
L 395.239428 145.937455 
L 395.369342 119.546182 
L 395.629169 163.531636 
L 395.759083 137.140364 
L 395.888997 145.937455 
L 396.018911 141.538909 
L 396.148825 119.546182 
L 396.278738 132.741818 
L 396.408652 97.553455 
L 396.66848 145.937455 
L 396.798394 154.734545 
L 396.928307 115.147636 
L 397.058221 132.741818 
L 397.188135 132.741818 
L 397.318049 110.749091 
L 397.447962 123.944727 
L 397.577876 119.546182 
L 397.70779 185.524364 
L 397.837704 128.343273 
L 397.967618 141.538909 
L 398.097531 176.727273 
L 398.227445 106.350545 
L 398.357359 145.937455 
L 398.487273 150.336 
L 398.487273 150.336 
" clip-path="url(#p08efe9f688)" style="fill: none; stroke: #55a868; stroke-width: 1.5; stroke-linecap: round"/>
   </g>
   <g id="patch_3">
    <path d="M 57.6 307.584 
L 57.6 41.472 
" style="fill: none; stroke: #ffffff; stroke-width: 1.25; stroke-linejoin: miter; stroke-linecap: square"/>
   </g>
   <g id="patch_4">
    <path d="M 414.72 307.584 
L 414.72 41.472 
" style="fill: none; stroke: #ffffff; stroke-width: 1.25; stroke-linejoin: miter; stroke-linecap: square"/>
   </g>
   <g id="patch_5">
    <path d="M 57.6 307.584 
L 414.72 307.584 
" style="fill: none; stroke: #ffffff; stroke-width: 1.25; stroke-linejoin: miter; stroke-linecap: square"/>
   </g>
   <g id="patch_6">
    <path d="M 57.6 41.472 
L 414.72 41.472 
" style="fill: none; stroke: #ffffff; stroke-width: 1.25; stroke-linejoin: miter; stroke-linecap: square"/>
   </g>
   <g id="text_15">
    <!-- LBF: (8x8), two agents, two foods, cooperative -->
    <g style="fill: #262626" transform="translate(112.439063 35.472)scale(0.12 -0.12)">
     <defs>
      <path id="ArialMT-4c" d="M 469 0 
L 469 4581 
L 1075 4581 
L 1075 541 
L 3331 541 
L 3331 0 
L 469 0 
z
" transform="scale(0.015625)"/>
      <path id="ArialMT-42" d="M 469 0 
L 469 4581 
L 2188 4581 
Q 2713 4581 3030 4442 
Q 3347 4303 3526 4014 
Q 3706 3725 3706 3409 
Q 3706 3116 3547 2856 
Q 3388 2597 3066 2438 
Q 3481 2316 3704 2022 
Q 3928 1728 3928 1328 
Q 3928 1006 3792 729 
Q 3656 453 3456 303 
Q 3256 153 2954 76 
Q 2653 0 2216 0 
L 469 0 
z
M 1075 2656 
L 2066 2656 
Q 2469 2656 2644 2709 
Q 2875 2778 2992 2937 
Q 3109 3097 3109 3338 
Q 3109 3566 3000 3739 
Q 2891 3913 2687 3977 
Q 2484 4041 1991 4041 
L 1075 4041 
L 1075 2656 
z
M 1075 541 
L 2216 541 
Q 2509 541 2628 563 
Q 2838 600 2978 687 
Q 3119 775 3209 942 
Q 3300 1109 3300 1328 
Q 3300 1584 3169 1773 
Q 3038 1963 2805 2039 
Q 2572 2116 2134 2116 
L 1075 2116 
L 1075 541 
z
" transform="scale(0.015625)"/>
      <path id="ArialMT-46" d="M 525 0 
L 525 4581 
L 3616 4581 
L 3616 4041 
L 1131 4041 
L 1131 2622 
L 3281 2622 
L 3281 2081 
L 1131 2081 
L 1131 0 
L 525 0 
z
" transform="scale(0.015625)"/>
      <path id="ArialMT-3a" d="M 578 2678 
L 578 3319 
L 1219 3319 
L 1219 2678 
L 578 2678 
z
M 578 0 
L 578 641 
L 1219 641 
L 1219 0 
L 578 0 
z
" transform="scale(0.015625)"/>
      <path id="ArialMT-28" d="M 1497 -1347 
Q 1031 -759 709 28 
Q 388 816 388 1659 
Q 388 2403 628 3084 
Q 909 3875 1497 4659 
L 1900 4659 
Q 1522 4009 1400 3731 
Q 1209 3300 1100 2831 
Q 966 2247 966 1656 
Q 966 153 1900 -1347 
L 1497 -1347 
z
" transform="scale(0.015625)"/>
      <path id="ArialMT-78" d="M 47 0 
L 1259 1725 
L 138 3319 
L 841 3319 
L 1350 2541 
Q 1494 2319 1581 2169 
Q 1719 2375 1834 2534 
L 2394 3319 
L 3066 3319 
L 1919 1756 
L 3153 0 
L 2463 0 
L 1781 1031 
L 1600 1309 
L 728 0 
L 47 0 
z
" transform="scale(0.015625)"/>
      <path id="ArialMT-29" d="M 791 -1347 
L 388 -1347 
Q 1322 153 1322 1656 
Q 1322 2244 1188 2822 
Q 1081 3291 891 3722 
Q 769 4003 388 4659 
L 791 4659 
Q 1378 3875 1659 3084 
Q 1900 2403 1900 1659 
Q 1900 816 1576 28 
Q 1253 -759 791 -1347 
z
" transform="scale(0.015625)"/>
      <path id="ArialMT-2c" d="M 569 0 
L 569 641 
L 1209 641 
L 1209 0 
Q 1209 -353 1084 -570 
Q 959 -788 688 -906 
L 531 -666 
Q 709 -588 793 -436 
Q 878 -284 888 0 
L 569 0 
z
" transform="scale(0.015625)"/>
      <path id="ArialMT-77" d="M 1034 0 
L 19 3319 
L 600 3319 
L 1128 1403 
L 1325 691 
Q 1338 744 1497 1375 
L 2025 3319 
L 2603 3319 
L 3100 1394 
L 3266 759 
L 3456 1400 
L 4025 3319 
L 4572 3319 
L 3534 0 
L 2950 0 
L 2422 1988 
L 2294 2553 
L 1622 0 
L 1034 0 
z
" transform="scale(0.015625)"/>
      <path id="ArialMT-61" d="M 2588 409 
Q 2275 144 1986 34 
Q 1697 -75 1366 -75 
Q 819 -75 525 192 
Q 231 459 231 875 
Q 231 1119 342 1320 
Q 453 1522 633 1644 
Q 813 1766 1038 1828 
Q 1203 1872 1538 1913 
Q 2219 1994 2541 2106 
Q 2544 2222 2544 2253 
Q 2544 2597 2384 2738 
Q 2169 2928 1744 2928 
Q 1347 2928 1158 2789 
Q 969 2650 878 2297 
L 328 2372 
Q 403 2725 575 2942 
Q 747 3159 1072 3276 
Q 1397 3394 1825 3394 
Q 2250 3394 2515 3294 
Q 2781 3194 2906 3042 
Q 3031 2891 3081 2659 
Q 3109 2516 3109 2141 
L 3109 1391 
Q 3109 606 3145 398 
Q 3181 191 3288 0 
L 2700 0 
Q 2613 175 2588 409 
z
M 2541 1666 
Q 2234 1541 1622 1453 
Q 1275 1403 1131 1340 
Q 988 1278 909 1158 
Q 831 1038 831 891 
Q 831 666 1001 516 
Q 1172 366 1500 366 
Q 1825 366 2078 508 
Q 2331 650 2450 897 
Q 2541 1088 2541 1459 
L 2541 1666 
z
" transform="scale(0.015625)"/>
      <path id="ArialMT-67" d="M 319 -275 
L 866 -356 
Q 900 -609 1056 -725 
Q 1266 -881 1628 -881 
Q 2019 -881 2231 -725 
Q 2444 -569 2519 -288 
Q 2563 -116 2559 434 
Q 2191 0 1641 0 
Q 956 0 581 494 
Q 206 988 206 1678 
Q 206 2153 378 2554 
Q 550 2956 876 3175 
Q 1203 3394 1644 3394 
Q 2231 3394 2613 2919 
L 2613 3319 
L 3131 3319 
L 3131 450 
Q 3131 -325 2973 -648 
Q 2816 -972 2473 -1159 
Q 2131 -1347 1631 -1347 
Q 1038 -1347 672 -1080 
Q 306 -813 319 -275 
z
M 784 1719 
Q 784 1066 1043 766 
Q 1303 466 1694 466 
Q 2081 466 2343 764 
Q 2606 1063 2606 1700 
Q 2606 2309 2336 2618 
Q 2066 2928 1684 2928 
Q 1309 2928 1046 2623 
Q 784 2319 784 1719 
z
" transform="scale(0.015625)"/>
      <path id="ArialMT-66" d="M 556 0 
L 556 2881 
L 59 2881 
L 59 3319 
L 556 3319 
L 556 3672 
Q 556 4006 616 4169 
Q 697 4388 901 4523 
Q 1106 4659 1475 4659 
Q 1713 4659 2000 4603 
L 1916 4113 
Q 1741 4144 1584 4144 
Q 1328 4144 1222 4034 
Q 1116 3925 1116 3625 
L 1116 3319 
L 1763 3319 
L 1763 2881 
L 1116 2881 
L 1116 0 
L 556 0 
z
" transform="scale(0.015625)"/>
      <path id="ArialMT-64" d="M 2575 0 
L 2575 419 
Q 2259 -75 1647 -75 
Q 1250 -75 917 144 
Q 584 363 401 755 
Q 219 1147 219 1656 
Q 219 2153 384 2558 
Q 550 2963 881 3178 
Q 1213 3394 1622 3394 
Q 1922 3394 2156 3267 
Q 2391 3141 2538 2938 
L 2538 4581 
L 3097 4581 
L 3097 0 
L 2575 0 
z
M 797 1656 
Q 797 1019 1065 703 
Q 1334 388 1700 388 
Q 2069 388 2326 689 
Q 2584 991 2584 1609 
Q 2584 2291 2321 2609 
Q 2059 2928 1675 2928 
Q 1300 2928 1048 2622 
Q 797 2316 797 1656 
z
" transform="scale(0.015625)"/>
      <path id="ArialMT-63" d="M 2588 1216 
L 3141 1144 
Q 3050 572 2676 248 
Q 2303 -75 1759 -75 
Q 1078 -75 664 370 
Q 250 816 250 1647 
Q 250 2184 428 2587 
Q 606 2991 970 3192 
Q 1334 3394 1763 3394 
Q 2303 3394 2647 3120 
Q 2991 2847 3088 2344 
L 2541 2259 
Q 2463 2594 2264 2762 
Q 2066 2931 1784 2931 
Q 1359 2931 1093 2626 
Q 828 2322 828 1663 
Q 828 994 1084 691 
Q 1341 388 1753 388 
Q 2084 388 2306 591 
Q 2528 794 2588 1216 
z
" transform="scale(0.015625)"/>
     </defs>
     <use xlink:href="#ArialMT-4c"/>
     <use xlink:href="#ArialMT-42" x="55.615234"/>
     <use xlink:href="#ArialMT-46" x="122.314453"/>
     <use xlink:href="#ArialMT-3a" x="183.398438"/>
     <use xlink:href="#ArialMT-20" x="211.181641"/>
     <use xlink:href="#ArialMT-28" x="238.964844"/>
     <use xlink:href="#ArialMT-38" x="272.265625"/>
     <use xlink:href="#ArialMT-78" x="327.880859"/>
     <use xlink:href="#ArialMT-38" x="377.880859"/>
     <use xlink:href="#ArialMT-29" x="433.496094"/>
     <use xlink:href="#ArialMT-2c" x="466.796875"/>
     <use xlink:href="#ArialMT-20" x="494.580078"/>
     <use xlink:href="#ArialMT-74" x="522.363281"/>
     <use xlink:href="#ArialMT-77" x="550.146484"/>
     <use xlink:href="#ArialMT-6f" x="622.363281"/>
     <use xlink:href="#ArialMT-20" x="677.978516"/>
     <use xlink:href="#ArialMT-61" x="705.761719"/>
     <use xlink:href="#ArialMT-67" x="761.376953"/>
     <use xlink:href="#ArialMT-65" x="816.992188"/>
     <use xlink:href="#ArialMT-6e" x="872.607422"/>
     <use xlink:href="#ArialMT-74" x="928.222656"/>
     <use xlink:href="#ArialMT-73" x="956.005859"/>
     <use xlink:href="#ArialMT-2c" x="1006.005859"/>
     <use xlink:href="#ArialMT-20" x="1033.789062"/>
     <use xlink:href="#ArialMT-74" x="1061.572266"/>
     <use xlink:href="#ArialMT-77" x="1089.355469"/>
     <use xlink:href="#ArialMT-6f" x="1161.572266"/>
     <use xlink:href="#ArialMT-20" x="1217.1875"/>
     <use xlink:href="#ArialMT-66" x="1244.970703"/>
     <use xlink:href="#ArialMT-6f" x="1272.753906"/>
     <use xlink:href="#ArialMT-6f" x="1328.369141"/>
     <use xlink:href="#ArialMT-64" x="1383.984375"/>
     <use xlink:href="#ArialMT-73" x="1439.599609"/>
     <use xlink:href="#ArialMT-2c" x="1489.599609"/>
     <use xlink:href="#ArialMT-20" x="1517.382812"/>
     <use xlink:href="#ArialMT-63" x="1545.166016"/>
     <use xlink:href="#ArialMT-6f" x="1595.166016"/>
     <use xlink:href="#ArialMT-6f" x="1650.78125"/>
     <use xlink:href="#ArialMT-70" x="1706.396484"/>
     <use xlink:href="#ArialMT-65" x="1762.011719"/>
     <use xlink:href="#ArialMT-72" x="1817.626953"/>
     <use xlink:href="#ArialMT-61" x="1850.927734"/>
     <use xlink:href="#ArialMT-74" x="1906.542969"/>
     <use xlink:href="#ArialMT-69" x="1934.326172"/>
     <use xlink:href="#ArialMT-76" x="1956.542969"/>
     <use xlink:href="#ArialMT-65" x="2006.542969"/>
    </g>
   </g>
   <g id="legend_1">
    <g id="patch_7">
     <path d="M 341.863906 302.084 
L 407.02 302.084 
Q 409.22 302.084 409.22 299.884 
L 409.22 285.424156 
Q 409.22 283.224156 407.02 283.224156 
L 341.863906 283.224156 
Q 339.663906 283.224156 339.663906 285.424156 
L 339.663906 299.884 
Q 339.663906 302.084 341.863906 302.084 
z
" style="fill: #eaeaf2; opacity: 0.8; stroke: #cccccc; stroke-linejoin: miter"/>
    </g>
    <g id="line2d_13">
     <path d="M 344.063906 291.64775 
L 355.063906 291.64775 
L 366.063906 291.64775 
" style="fill: none; stroke: #55a868; stroke-width: 1.5; stroke-linecap: round"/>
    </g>
    <g id="text_16">
     <!-- SEAC -->
     <g style="fill: #262626" transform="translate(374.863906 295.49775)scale(0.11 -0.11)">
      <defs>
       <path id="ArialMT-41" d="M -9 0 
L 1750 4581 
L 2403 4581 
L 4278 0 
L 3588 0 
L 3053 1388 
L 1138 1388 
L 634 0 
L -9 0 
z
M 1313 1881 
L 2866 1881 
L 2388 3150 
Q 2169 3728 2063 4100 
Q 1975 3659 1816 3225 
L 1313 1881 
z
" transform="scale(0.015625)"/>
       <path id="ArialMT-43" d="M 3763 1606 
L 4369 1453 
Q 4178 706 3683 314 
Q 3188 -78 2472 -78 
Q 1731 -78 1267 223 
Q 803 525 561 1097 
Q 319 1669 319 2325 
Q 319 3041 592 3573 
Q 866 4106 1370 4382 
Q 1875 4659 2481 4659 
Q 3169 4659 3637 4309 
Q 4106 3959 4291 3325 
L 3694 3184 
Q 3534 3684 3231 3912 
Q 2928 4141 2469 4141 
Q 1941 4141 1586 3887 
Q 1231 3634 1087 3207 
Q 944 2781 944 2328 
Q 944 1744 1114 1308 
Q 1284 872 1643 656 
Q 2003 441 2422 441 
Q 2931 441 3284 734 
Q 3638 1028 3763 1606 
z
" transform="scale(0.015625)"/>
      </defs>
      <use xlink:href="#ArialMT-53"/>
      <use xlink:href="#ArialMT-45" x="66.699219"/>
      <use xlink:href="#ArialMT-41" x="133.398438"/>
      <use xlink:href="#ArialMT-43" x="200.097656"/>
     </g>
    </g>
   </g>
  </g>
 </g>
 <defs>
  <clipPath id="p08efe9f688">
   <rect x="57.6" y="41.472" width="357.12" height="266.112"/>
  </clipPath>
 </defs>
</svg>
